<?xml version="1.0"?>
<svg xmlns="http://www.w3.org/2000/svg" viewBox="0 0 192 192" width="512px" height="512px" class=""><g><g id="_05-card" data-name="05-card"><path d="M152,32h-8V24A24.027,24.027,0,0,0,120,0H40A24.027,24.027,0,0,0,16,24V136a24.027,24.027,0,0,0,24,24h8v8a24.027,24.027,0,0,0,24,24h80a24.027,24.027,0,0,0,24-24V56A24.027,24.027,0,0,0,152,32ZM32,136V24a8.009,8.009,0,0,1,8-8h80a8.009,8.009,0,0,1,8,8V136a8.009,8.009,0,0,1-8,8H40A8.009,8.009,0,0,1,32,136Zm128,32a8.009,8.009,0,0,1-8,8H72a8.009,8.009,0,0,1-8-8v-8h56a24.027,24.027,0,0,0,24-24V48h8a8.009,8.009,0,0,1,8,8Z" data-original="#000000" class="active-path" data-old_color="#000000" fill="#A6A6A6"/><path d="M101.26,51.433c-5.6-4.708-11.387-9.575-14.105-15.011a8,8,0,0,0-14.31,0c-2.718,5.436-8.507,10.3-14.1,15.011C49.956,58.819,40,67.19,40,80c0,10.406,4.255,18.767,11.982,23.542,5.665,3.5,12.7,4.633,20.018,3.427V128H88V106.97a34.306,34.306,0,0,0,5.562.473,27.306,27.306,0,0,0,14.456-3.9C115.745,98.767,120,90.406,120,80,120,67.19,110.044,58.819,101.26,51.433Zm-1.654,38.5c-3.823,2.361-9.963,1.945-16.028-1.087a8,8,0,0,0-7.156,0c-6.065,3.032-12.2,3.449-16.028,1.087C56.763,87.687,56,83.292,56,80c0-5.359,6.042-10.439,13.037-16.321A118.864,118.864,0,0,0,80,53.631,118.864,118.864,0,0,0,90.963,63.679C97.958,69.561,104,74.641,104,80,104,83.292,103.237,87.687,99.606,89.932Z" data-original="#000000" class="active-path" data-old_color="#000000" fill="#A6A6A6"/></g></g> </svg>
